<?xml version="1.0" encoding="UTF-8" standalone="no"?>
<svg
   xmlns:dc="http://purl.org/dc/elements/1.1/"
   xmlns:cc="http://creativecommons.org/ns#"
   xmlns:rdf="http://www.w3.org/1999/02/22-rdf-syntax-ns#"
   xmlns:svg="http://www.w3.org/2000/svg"
   xmlns="http://www.w3.org/2000/svg"
   xmlns:sodipodi="http://sodipodi.sourceforge.net/DTD/sodipodi-0.dtd"
   xmlns:inkscape="http://www.inkscape.org/namespaces/inkscape"
   id="Capa_1"
   enable-background="new 0 0 512.014 512.014"
   height="512"
   viewBox="0 0 512.014 512.014"
   width="512"
   version="1.1"
   sodipodi:docname="communications.svg"
   inkscape:version="0.92.3 (2405546, 2018-03-11)">
  <metadata
     id="metadata27">
    <rdf:RDF>
      <cc:Work
         rdf:about="">
        <dc:format>image/svg+xml</dc:format>
        <dc:type
           rdf:resource="http://purl.org/dc/dcmitype/StillImage" />
      </cc:Work>
    </rdf:RDF>
  </metadata>
  <defs
     id="defs25" />
  <sodipodi:namedview
     pagecolor="#ffffff"
     bordercolor="#666666"
     borderopacity="1"
     objecttolerance="10"
     gridtolerance="10"
     guidetolerance="10"
     inkscape:pageopacity="0"
     inkscape:pageshadow="2"
     inkscape:window-width="1024"
     inkscape:window-height="718"
     id="namedview23"
     showgrid="false"
     inkscape:zoom="0.4609375"
     inkscape:cx="256"
     inkscape:cy="-39.592512"
     inkscape:window-x="0"
     inkscape:window-y="24"
     inkscape:window-maximized="1"
     inkscape:current-layer="g20" />
  <linearGradient
     id="SVGID_1_"
     gradientUnits="userSpaceOnUse"
     x1="256.007"
     x2="256.007"
     y1="512.014"
     y2="0">
    <stop
       offset="0"
       stop-color="#00b59c"
       id="stop2" />
    <stop
       offset="1"
       stop-color="#9cffac"
       id="stop4" />
  </linearGradient>
  <linearGradient
     id="SVGID_2_"
     gradientUnits="userSpaceOnUse"
     x1="256.007"
     x2="256.007"
     y1="166.069"
     y2="76.069">
    <stop
       offset="0"
       stop-color="#c3ffe8"
       id="stop7" />
    <stop
       offset=".9973"
       stop-color="#f0fff4"
       id="stop9" />
  </linearGradient>
  <g
     id="g20">
    <g
       id="g14"
       style="fill:#000000">
      <path
         inkscape:connector-curvature="0"
         style="fill:#000000"
         id="path12"
         d="m 390.948,121.069 c 0,36.108 -14.033,70.005 -39.492,95.464 -5.859,5.859 -5.859,15.352 0,21.211 5.86,5.859 15.352,5.859 21.211,0 31.143,-31.113 48.281,-72.554 48.281,-116.675 0,-44.121 -17.138,-85.561 -48.281,-116.674 -5.859,-5.859 -15.352,-5.859 -21.211,0 -5.859,5.859 -5.859,15.352 0,21.211 25.459,25.458 39.492,59.355 39.492,95.463 z m -81.914,74.239 c 2.93,2.93 6.768,4.395 10.605,4.395 3.837,0 7.676,-1.465 10.605,-4.395 19.805,-19.805 30.703,-46.157 30.703,-74.238 0,-28.081 -10.898,-54.434 -30.703,-74.238 -5.859,-5.859 -15.352,-5.859 -21.211,0 -5.859,5.859 -5.859,15.352 0,21.211 14.15,14.136 21.914,32.974 21.914,53.027 0,20.053 -7.764,38.892 -21.914,53.027 -5.858,5.859 -5.858,15.351 10e-4,21.211 z m -148.476,42.436 c 5.859,-5.859 5.859,-15.352 0,-21.211 -25.459,-25.459 -39.492,-59.355 -39.492,-95.464 0,-36.109 14.033,-70.005 39.492,-95.464 5.859,-5.859 5.859,-15.352 0,-21.211 -5.859,-5.859 -15.352,-5.859 -21.211,0 -31.143,31.113 -48.281,72.554 -48.281,116.675 0,44.121 17.139,85.562 48.281,116.675 5.859,5.86 15.352,5.86 21.211,0 z m 21.211,-42.436 c 5.86,5.859 15.352,5.859 21.211,0 5.859,-5.859 5.859,-15.352 0,-21.211 -14.15,-14.136 -21.914,-32.974 -21.914,-53.027 0,-20.053 7.764,-38.892 21.914,-53.027 5.859,-5.859 5.859,-15.352 0,-21.211 -5.859,-5.859 -15.352,-5.859 -21.211,0 -19.805,19.805 -30.703,46.157 -30.703,74.238 0,28.081 10.898,54.433 30.703,74.238 z m 88.418,-49.161 c -4.504,-13.109 -23.842,-13.068 -28.359,0 l -120,345.931 c -4.165,12.4 9.68,25.142 21.943,17.754 l 112.244,-67.921 112.229,67.921 c 12.227,7.366 26.122,-5.313 21.943,-17.754 z m 34.233,190.733 -22.8,-16.483 13.638,-9.86 z m -48.413,-140.122 28.96,84.194 -28.956,20.935 -28.964,-20.937 z m -39.25,113.775 13.652,9.866 -22.822,16.5 z m -52.9,152.083 21.976,-63.179 41.213,24.943 z m 40.998,-86.729 51.16,-36.982 51.174,36.982 -51.171,30.965 z m 80.13,48.495 41.202,-24.932 21.965,63.162 z" />
    </g>
    <path
       d="m256.007 166.069c-24.814 0-45-20.186-45-45s20.186-45 45-45 45 20.186 45 45-20.186 45-45 45z"
       fill="url(#SVGID_2_)"
       id="path18"
       style="fill:#666666" />
  </g>
</svg>
